<svg id="visual" viewBox="0 0 1400 540" width="1400" height="540" xmlns="http://www.w3.org/2000/svg" xmlns:xlink="http://www.w3.org/1999/xlink" version="1.1"><rect x="0" y="0" width="1400" height="540" fill="#220901"></rect><path d="M0 71L18 70C36 69 72 67 107.8 69C143.7 71 179.3 77 215.2 79.7C251 82.3 287 81.7 323 79.3C359 77 395 73 430.8 70.3C466.7 67.7 502.3 66.3 538.2 67.3C574 68.3 610 71.7 646 75.5C682 79.3 718 83.7 754 82.5C790 81.3 826 74.7 861.8 72.7C897.7 70.7 933.3 73.3 969.2 76.7C1005 80 1041 84 1077 83.7C1113 83.3 1149 78.7 1184.8 78.7C1220.7 78.7 1256.3 83.3 1292.2 83C1328 82.7 1364 77.3 1382 74.7L1400 72L1400 0L1382 0C1364 0 1328 0 1292.2 0C1256.3 0 1220.7 0 1184.8 0C1149 0 1113 0 1077 0C1041 0 1005 0 969.2 0C933.3 0 897.7 0 861.8 0C826 0 790 0 754 0C718 0 682 0 646 0C610 0 574 0 538.2 0C502.3 0 466.7 0 430.8 0C395 0 359 0 323 0C287 0 251 0 215.2 0C179.3 0 143.7 0 107.8 0C72 0 36 0 18 0L0 0Z" fill="#621708" stroke-linecap="round" stroke-linejoin="miter"></path></svg>